HIERARCHY
ROOT Hips
{
	OFFSET 53.310001 4.151966 85.463799
	CHANNELS 6 Xposition Yposition Zposition Xrotation Yrotation Zrotation
	JOINT spine
	{
		OFFSET 0.000000 -0.367607 6.392601
		CHANNELS 3 Xrotation Yrotation Zrotation
		JOINT spine1
		{
			OFFSET 0.000000 -0.000001 9.176109
			CHANNELS 3 Xrotation Yrotation Zrotation
			JOINT spine2
			{
				OFFSET 0.000000 -0.000001 8.792381
				CHANNELS 3 Xrotation Yrotation Zrotation
				JOINT Neck
				{
					OFFSET 0.000000 -1.076243 22.573700
					CHANNELS 3 Xrotation Yrotation Zrotation
					JOINT Head
					{
						OFFSET 0.000000 -0.000001 6.820114
						CHANNELS 3 Xrotation Yrotation Zrotation
						End Site
						{
							OFFSET 0.000000 5.444267 16.508499
						}
					}
				}
				JOINT RightShoulder
				{
					OFFSET -3.702209 0.515506 9.495087
					CHANNELS 3 Xrotation Yrotation Zrotation
					JOINT RightArm
					{
						OFFSET 0.000000 -0.000002 12.453705
						CHANNELS 3 Xrotation Yrotation Zrotation
						JOINT RightArmRoll
						{
							OFFSET 0.000000 -0.000001 6.286850
							CHANNELS 3 Xrotation Yrotation Zrotation
							JOINT RightForeArm
							{
								OFFSET 0.000000 -0.000003 18.311401
								CHANNELS 3 Xrotation Yrotation Zrotation
								JOINT RightForeArmRoll
								{
									OFFSET 0.000000 -0.000001 7.054825
									CHANNELS 3 Xrotation Yrotation Zrotation
									JOINT RightHand
									{
										OFFSET 0.000000 -0.000002 14.157501
										CHANNELS 3 Xrotation Yrotation Zrotation
										End Site
										{
											OFFSET 0.000000 0.000000 0.100006
										}
									}
								}
							}
						}
					}
				}
				JOINT LeftShoulder
				{
					OFFSET 3.702209 0.515506 9.495087
					CHANNELS 3 Xrotation Yrotation Zrotation
					JOINT LeftArm
					{
						OFFSET 0.000000 -0.000002 12.453705
						CHANNELS 3 Xrotation Yrotation Zrotation
						JOINT LeftArmRoll
						{
							OFFSET 0.000000 -0.000001 6.286865
							CHANNELS 3 Xrotation Yrotation Zrotation
							JOINT LeftForeArm
							{
								OFFSET 0.000000 -0.000003 18.311401
								CHANNELS 3 Xrotation Yrotation Zrotation
								JOINT LeftForeArmRoll
								{
									OFFSET 0.000000 -0.000001 7.054825
									CHANNELS 3 Xrotation Yrotation Zrotation
									JOINT LeftHand
									{
										OFFSET 0.000000 -0.000002 14.157501
										CHANNELS 3 Xrotation Yrotation Zrotation
										End Site
										{
											OFFSET 0.000000 0.000000 0.100006
										}
									}
								}
							}
						}
					}
				}
			}
		}
	}
	JOINT RightUpLeg
	{
		OFFSET -5.666161 0.871610 -1.039032
		CHANNELS 3 Xrotation Yrotation Zrotation
		JOINT RightUpLegRoll
		{
			OFFSET 0.000000 -0.000003 16.600502
			CHANNELS 3 Xrotation Yrotation Zrotation
			JOINT RightLeg
			{
				OFFSET 0.000000 0.000004 -20.557198
				CHANNELS 3 Xrotation Yrotation Zrotation
				JOINT RightLegRoll
				{
					OFFSET 0.000000 -0.000004 20.624397
					CHANNELS 3 Xrotation Yrotation Zrotation
					JOINT RightFoot
					{
						OFFSET 0.000000 -0.000002 17.166397
						CHANNELS 3 Xrotation Yrotation Zrotation
						JOINT RightToeBase
						{
							OFFSET 0.000000 -0.000002 14.350204
							CHANNELS 3 Xrotation Yrotation Zrotation
							End Site
							{
								OFFSET 0.006081 0.801060 6.949707
							}
						}
					}
				}
			}
		}
	}
	JOINT LeftUpLeg
	{
		OFFSET 5.666161 0.871610 -1.039032
		CHANNELS 3 Xrotation Yrotation Zrotation
		JOINT LeftUpLegRoll
		{
			OFFSET 0.000000 -0.000003 16.600601
			CHANNELS 3 Xrotation Yrotation Zrotation
			JOINT LeftLeg
			{
				OFFSET 0.000000 -0.000003 20.557098
				CHANNELS 3 Xrotation Yrotation Zrotation
				JOINT LeftLegRoll
				{
					OFFSET 0.000000 -0.000003 20.815102
					CHANNELS 3 Xrotation Yrotation Zrotation
					JOINT LeftFoot
					{
						OFFSET 0.000000 -0.000002 16.975693
						CHANNELS 3 Xrotation Yrotation Zrotation
						JOINT LeftToeBase
						{
							OFFSET 0.000000 -0.000002 14.350204
							CHANNELS 3 Xrotation Yrotation Zrotation
							End Site
							{
								OFFSET -0.027260 0.801060 6.949707
							}
						}
					}
				}
			}
		}
	}
}
MOTION
Frames: 13
Frame Time: 0.041667
56.597309 -7.092505 86.141083 13.112951 -2.038763 -0.711081 -2.298354 1.457257 -0.467931 -0.583022 2.928789 -0.891282 1.062838 2.917909 -0.926329 10.606088 -2.082870 1.671675 -7.450273 -3.983950 2.040793 -10.416637 -52.319563 -11.893681 -6.518460 -104.267503 8.774751 0.000001 0.000002 -0.000001 0.098278 -12.050580 -0.981986 -0.000004 -0.000005 -3.060952 -5.000183 -7.998848 0.000171 -16.683751 44.335407 19.555364 11.859496 110.329453 -14.700326 -0.000003 -0.000009 0.000004 20.430802 12.588076 -1.611570 -0.000003 0.000004 3.005270 -5.000221 7.998704 -0.000170 -31.140130 -175.774167 -0.275754 -179.999991 0.000005 -0.835996 144.137018 -3.017027 -2.373935 0.000004 0.000004 0.479449 69.828255 6.806741 2.330116 36.181220 -7.227097 1.378839 -26.173843 179.289215 2.106588 -0.000004 -0.000004 -0.868775 -30.204729 2.566281 1.223566 -0.000005 0.000001 -0.502345 69.829750 -6.756456 -2.443452 34.006310 7.273743 -1.101553 
56.633904 -7.079254 84.881187 13.254875 -2.146352 -0.655731 -2.271466 1.496095 -0.472114 -0.528823 3.006363 -0.899255 1.117087 2.995373 -0.935233 10.226830 -2.394736 1.637424 -7.467440 -3.817444 2.050642 -10.531304 -52.467215 -12.044683 -7.331928 -104.333435 7.903746 -0.000001 -0.000003 -0.000005 0.098127 -12.051485 -0.995526 -0.000004 -0.000007 -3.062249 -5.000181 -7.998844 0.000169 -16.540813 44.267047 19.370698 11.273611 110.463973 -14.155138 -0.000003 -0.000007 0.000004 20.508883 12.452624 -1.587652 -0.000003 0.000003 3.005269 -5.000221 7.998703 -0.000171 -31.827565 -175.667070 -0.219901 -179.999991 0.000005 -0.849001 142.697446 -2.841885 -2.395226 0.000005 0.000004 0.509523 69.889918 6.814743 2.306559 37.568428 -7.191660 1.554675 -26.969649 179.300361 1.886654 -0.000004 -0.000004 -0.875137 -31.733458 2.752221 1.330219 -0.000002 0.000001 -0.555812 70.323819 -6.745489 -2.445283 35.130846 7.250721 -1.245314 
56.654907 -6.937423 84.226685 13.398246 -2.241366 -0.597966 -2.243201 1.532695 -0.474717 -0.471922 3.079407 -0.904232 1.174024 3.068358 -0.941086 9.829704 -2.720194 1.597604 -7.477934 -3.637771 2.057554 -10.671186 -52.606168 -12.225677 -8.182016 -104.417733 6.993845 0.000000 -0.000004 -0.000002 0.097951 -12.048184 -1.009279 -0.000005 -0.000008 -3.063580 -5.000183 -7.998842 0.000173 -16.374274 44.186355 19.152702 10.662630 110.618759 -13.577638 -0.000006 -0.000006 0.000005 20.593679 12.312334 -1.563686 -0.000003 0.000004 3.005270 -5.000221 7.998704 -0.000171 -32.522793 -175.573127 -0.163713 -179.999991 0.000005 -0.862006 141.260606 -2.670404 -2.407643 0.000005 0.000003 0.542755 69.993627 6.821613 2.281508 38.883010 -7.154146 1.720432 -27.785631 179.300197 1.665617 -0.000005 -0.000005 -0.881843 -33.274752 2.921538 1.445297 -0.000003 0.000001 -0.611103 70.830387 -6.732854 -2.449719 36.208554 7.225985 -1.382752 
56.678101 -6.877771 84.262077 13.543140 -2.322391 -0.537355 -2.213657 1.566771 -0.475557 -0.412532 3.147289 -0.905850 1.233468 3.136215 -0.943519 9.415345 -3.058831 1.551793 -7.482341 -3.444163 2.060797 -10.838402 -52.734743 -12.439053 -9.064617 -104.522842 6.050631 0.000000 -0.000001 -0.000004 0.097739 -12.039087 -1.023399 -0.000005 -0.000005 -3.064982 -5.000182 -7.998846 0.000171 -16.182011 44.092460 18.898035 10.029748 110.793147 -12.969128 -0.000006 -0.000008 0.000006 20.686001 12.168379 -1.540141 -0.000003 0.000003 3.005271 -5.000221 7.998703 -0.000171 -33.225039 -175.493009 -0.106765 -179.999991 0.000005 -0.874997 139.837495 -2.507776 -2.414792 0.000006 0.000004 0.579506 70.147682 6.826933 2.255176 40.094471 -7.116208 1.872368 -28.621173 179.289843 1.447476 -0.000006 -0.000004 -0.888856 -34.817627 3.068858 1.565724 -0.000002 0.000001 -0.668012 71.345704 -6.718525 -2.457307 37.217219 7.200449 -1.511064 
56.650700 -6.746746 83.928482 13.689827 -2.388010 -0.473435 -2.182947 1.597970 -0.474452 -0.350867 3.209340 -0.903743 1.295179 3.198285 -0.942157 8.984352 -3.410213 1.499594 -7.481254 -3.235898 2.059635 -11.035044 -52.851338 -12.687197 -9.974836 -104.651148 5.080710 -0.000001 0.000002 -0.000005 0.097488 -12.022787 -1.038035 -0.000004 -0.000004 -3.066438 -5.000182 -7.998842 0.000170 -15.961648 43.984362 18.603250 9.377209 110.988477 -12.329944 -0.000002 -0.000009 0.000002 20.786629 12.021477 -1.517307 -0.000002 0.000004 3.005270 -5.000221 7.998705 -0.000172 -33.933237 -175.428177 -0.048063 -179.999991 0.000005 -0.888002 138.438809 -2.355022 -2.416530 0.000003 0.000004 0.620136 70.360661 6.830254 2.227566 41.172462 -7.079759 2.006816 -29.475186 179.273068 1.234836 -0.000005 -0.000004 -0.896139 -36.351278 3.189151 1.687740 -0.000004 0.000001 -0.726331 71.866089 -6.702196 -2.468546 38.134510 7.175222 -1.627525 
56.682098 -6.670252 83.710686 13.838666 -2.436775 -0.405771 -2.151159 1.625994 -0.471218 -0.287137 3.264939 -0.897538 1.358952 3.253947 -0.936621 8.537332 -3.773919 1.440588 -7.475267 -3.012219 2.053324 -11.263119 -52.954173 -12.972371 -10.908059 -104.804035 4.090160 -0.000001 -0.000003 -0.000003 0.097193 -11.997885 -1.053339 -0.000005 -0.000006 -3.067981 -5.000181 -7.998842 0.000168 -15.711278 43.860869 18.265265 8.707456 111.206039 -11.660614 -0.000001 -0.000004 0.000004 20.896455 11.872797 -1.495664 -0.000003 0.000004 3.005270 -5.000222 7.998705 -0.000172 -34.646469 -175.379204 0.012910 -179.999991 0.000005 -0.899995 137.075613 -2.217483 -2.415971 0.000003 0.000003 0.665003 70.640863 6.831300 2.198534 42.086594 -7.046865 2.120219 -30.347043 179.251771 1.031243 -0.000004 -0.000005 -0.903656 -37.864626 3.277720 1.806942 -0.000004 0.000001 -0.785854 72.388025 -6.683695 -2.483859 38.938249 7.151522 -1.729419 
56.669502 -6.460663 83.400887 13.989731 -2.467269 -0.333971 -2.118398 1.650502 -0.465670 -0.221555 3.313417 -0.886861 1.424577 3.302562 -0.926528 8.074877 -4.149505 1.374373 -7.464959 -2.772379 2.041120 -11.524526 -53.041384 -13.296760 -11.859151 -104.982856 3.085980 -0.000001 0.000001 -0.000003 0.096845 -11.962785 -1.069469 -0.000005 -0.000004 -3.069630 -5.000182 -7.998847 0.000169 -15.428542 43.720874 17.880762 8.023400 111.446113 -10.962145 -0.000001 -0.000004 0.000006 21.016366 11.723140 -1.475549 -0.000003 0.000003 3.005271 -5.000221 7.998704 -0.000171 -35.363810 -175.348195 0.077779 -179.999991 0.000005 -0.912003 135.758547 -2.097085 -2.413968 0.000007 0.000004 0.714468 70.996675 6.829699 2.168422 42.806421 -7.019716 2.209082 -31.235821 179.229587 0.839248 -0.000006 -0.000004 -0.911371 -39.346770 3.330272 1.918378 -0.000004 0.000001 -0.846373 72.907652 -6.662830 -2.503966 39.606109 7.130664 -1.814112 
56.683304 -6.384994 82.918983 14.143404 -2.478017 -0.257631 -2.084758 1.671184 -0.457622 -0.154338 3.354148 -0.871328 1.491830 3.343469 -0.911485 7.597579 -4.536522 1.300550 -7.450942 -2.515666 2.022296 -11.821059 -53.111052 -13.662412 -12.821926 -105.189886 2.075777 -0.000001 -0.000002 -0.000005 0.096442 -11.916188 -1.086562 -0.000005 -0.000004 -3.071391 -5.000182 -7.998843 0.000170 -15.111389 43.562936 17.446704 7.327922 111.709001 -10.235593 -0.000003 -0.000005 0.000003 21.146930 11.573509 -1.457299 -0.000003 0.000002 3.005270 -5.000221 7.998704 -0.000171 -36.084296 -175.334740 0.146548 -179.999991 0.000005 -0.923000 134.498542 -1.996268 -2.412256 0.000004 0.000004 0.768891 71.436341 6.825135 2.137323 43.301699 -7.000400 2.269908 -32.140715 179.208277 0.662438 -0.000004 -0.000005 -0.919247 -40.786557 3.342857 2.016638 -0.000004 0.000001 -0.907682 73.421371 -6.639433 -2.529189 40.115928 7.113969 -1.878961 
56.704205 -6.199123 82.597687 14.300044 -2.467436 -0.175859 -2.049918 1.688330 -0.445586 -0.084862 3.387687 -0.847932 1.561351 3.377288 -0.888495 7.098256 -4.956492 1.213648 -7.430271 -2.225702 1.995001 -12.174511 -53.158041 -14.096045 -13.788583 -105.432398 1.067165 -0.000001 0.000001 0.000000 0.095986 -11.858784 -1.104889 -0.000005 -0.000008 -3.073290 -5.000182 -7.998846 0.000170 -14.737750 43.376551 16.933215 6.639948 112.013668 -9.494899 0.000000 -0.000006 0.000004 21.304849 11.423024 -1.442286 -0.000004 0.000003 3.005270 -5.000221 7.998706 -0.000171 -36.811970 -175.340341 0.222814 -179.999991 0.000005 -0.933996 133.274244 -1.914692 -2.412423 0.000005 0.000003 0.830165 71.989074 6.817376 2.103479 43.568021 -6.989840 2.302373 -33.075092 179.181298 0.493838 -0.000007 -0.000005 -0.927399 -42.215272 3.323831 2.100855 -0.000002 0.000001 -0.970563 73.960997 -6.612803 -2.559185 40.469520 7.102998 -1.920291 
56.703209 -6.098334 82.192085 14.459753 -2.435944 -0.088672 -2.013520 1.702549 -0.428684 -0.012418 3.415230 -0.814885 1.633826 3.405229 -0.855781 6.570824 -5.425314 1.108301 -7.400173 -1.891386 1.958541 -12.598057 -53.179453 -14.614271 -14.753926 -105.711637 0.063554 0.000000 -0.000002 -0.000004 0.095500 -11.792685 -1.124460 -0.000004 -0.000006 -3.075340 -5.000182 -7.998846 0.000170 -14.294643 43.153910 16.323539 5.975565 112.369651 -8.755137 -0.000002 -0.000006 0.000003 21.501198 11.270126 -1.430778 -0.000004 0.000004 3.005269 -5.000221 7.998704 -0.000171 -37.551028 -175.364028 0.308777 -179.999991 0.000005 -0.945006 132.057323 -1.846958 -2.411908 0.000005 0.000004 0.899265 72.666512 6.806698 2.065523 43.637283 -6.987144 2.310516 -34.049531 179.140767 0.325126 -0.000006 -0.000004 -0.935953 -43.668586 3.284915 2.173824 -0.000004 0.000001 -1.035830 74.554042 -6.583223 -2.593149 40.693946 7.098035 -1.938583 
56.712605 -5.907709 81.838287 14.622149 -2.385140 0.002953 -1.975615 1.713961 -0.407637 0.062893 3.437079 -0.773629 1.709169 3.427569 -0.814791 6.017474 -5.934089 0.984454 -7.361501 -1.519825 1.913921 -13.080529 -53.177066 -15.203875 -15.712205 -106.025675 -0.929805 -0.000001 0.000001 -0.000003 0.094976 -11.718789 -1.145055 -0.000005 -0.000004 -3.077513 -5.000183 -7.998843 0.000167 -13.793777 42.897532 15.634433 5.330277 112.771484 -8.015507 -0.000002 -0.000006 0.000003 21.728744 11.114459 -1.421548 -0.000003 0.000002 3.005270 -5.000221 7.998704 -0.000171 -38.300344 -175.403738 0.403726 -179.999991 0.000005 -0.956003 130.848284 -1.792896 -2.413314 0.000006 0.000004 0.975167 73.450802 6.793567 2.024634 43.533816 -6.991401 2.297359 -35.059382 179.087273 0.157480 -0.000004 -0.000004 -0.944889 -45.141656 3.227587 2.235389 -0.000004 0.000001 -1.103330 75.190622 -6.551434 -2.631344 40.804848 7.098338 -1.937469 
56.717209 -5.786051 81.344582 14.786864 -2.316651 0.098059 -1.936256 1.722707 -0.383165 0.140980 3.453530 -0.725604 1.787289 3.444589 -0.766968 5.440373 -6.473908 0.842341 -7.315109 -1.118147 1.862122 -13.610557 -53.152621 -15.851436 -16.659699 -106.371563 -1.909532 -0.000001 0.000002 -0.000003 0.094423 -11.637787 -1.166467 -0.000005 -0.000003 -3.079782 -5.000183 -7.998844 0.000170 -13.246648 42.609841 14.882371 4.699546 113.210809 -7.275272 -0.000003 -0.000006 0.000003 21.980274 10.955745 -1.413497 -0.000003 0.000003 3.005270 -5.000221 7.998702 -0.000172 -39.058976 -175.457451 0.506816 -179.999991 0.000005 -0.967000 129.647823 -1.748450 -2.413652 0.000003 0.000004 1.056850 74.324206 6.778498 1.981777 43.281345 -7.001574 2.265812 -36.099787 179.020665 -0.007329 -0.000004 -0.000004 -0.954189 -46.629742 3.153239 2.285449 -0.000004 0.000001 -1.172890 75.860609 -6.518323 -2.673762 40.817815 7.102958 -1.920491 
56.700706 -5.473213 80.974083 14.953514 -2.232076 0.195691 -1.895515 1.728914 -0.355990 0.221750 3.464885 -0.672252 1.868080 3.456585 -0.713757 4.841656 -7.035919 0.682536 -7.261805 -0.693470 1.804156 -14.176792 -53.107999 -16.543480 -17.594699 -106.745359 -2.874432 -0.000001 0.000003 -0.000003 0.093836 -11.550486 -1.188476 -0.000004 -0.000004 -3.082130 -5.000183 -7.998846 0.000169 -12.664980 42.293945 14.083866 4.077471 113.683376 -6.532267 -0.000002 -0.000003 0.000005 22.248469 10.793627 -1.405501 -0.000004 0.000003 3.005270 -5.000221 7.998705 -0.000171 -39.825901 -175.524742 0.618413 -179.999991 0.000005 -0.976999 128.456474 -1.712953 -2.417501 0.000004 0.000003 1.143300 75.268883 6.762016 1.938001 42.904209 -7.016456 2.218790 -37.166181 178.942446 -0.168666 -0.000004 -0.000004 -0.963833 -48.128143 3.063227 2.323955 -0.000007 0.000001 -1.244350 76.554031 -6.484658 -2.720219 40.748430 7.110873 -1.891185 
